<svg xmlns="http://www.w3.org/2000/svg" width="13.783" height="13.779" viewBox="0 0 13.783 13.779"><defs><style>.a{fill:#fff;fill-rule:evenodd;opacity:0.3;}.b{fill:none;stroke:#fff;stroke-linecap:round;stroke-linejoin:round;}</style></defs><g transform="translate(-2.995 -2.999)"><path class="a" d="M16.32,13.058A6.343,6.343,0,0,1,4.29,14.629a6.5,6.5,0,0,1,.7-1.05,4.581,4.581,0,0,1,3.319-1.565,9.31,9.31,0,0,0,2.6.042,4.137,4.137,0,0,0,1.121-.55,2.763,2.763,0,0,1,2.685-.359,2.586,2.586,0,0,1,1.6,1.91Z" transform="translate(-0.227 -2.196)"/><path class="b" d="M13.253,4.5A6.343,6.343,0,0,0,4.507,6.435a6.413,6.413,0,0,0-.923,2.481,6.343,6.343,0,0,0,10.98,5.145,4.743,4.743,0,0,0,.62-.81,6.343,6.343,0,0,0,.035-6.773"/><path class="b" d="M8.69,14.06l1.346-4.031L14.06,8.69l-1.339,4.024L8.69,14.06Z" transform="translate(-1.526 -1.529)"/></g></svg>