<svg xmlns="http://www.w3.org/2000/svg" width="14.148" height="12.8" viewBox="0 0 14.148 12.8"><defs><style>.a{fill:none;stroke:#fff;stroke-linecap:round;stroke-linejoin:round;}.b{fill:#fff;fill-rule:evenodd;opacity:0.3;}</style></defs><g transform="translate(-3.43 -4.3)"><g transform="translate(3.93 4.8)"><path class="a" d="M17.063,9.538a1.31,1.31,0,0,0-1.31-1.318H5.24A1.31,1.31,0,0,0,3.93,9.538V16.1a1.31,1.31,0,0,0,1.31,1.3H15.753a1.287,1.287,0,0,0,.766-.238,1.272,1.272,0,0,0,.559-1.057v-3.31" transform="translate(-3.93 -5.599)"/><path class="a" d="M14.326,16.6V6.11A1.31,1.31,0,0,0,13.008,4.8h-2.62A1.31,1.31,0,0,0,9.07,6.11V16.6" transform="translate(-5.132 -4.8)"/></g><path class="b" d="M17.16,18.136c-.038.084-.069.161-.107.238a1.287,1.287,0,0,1-.766.238H6.326a3.387,3.387,0,0,1,.835-2.835A3.356,3.356,0,0,1,8.425,14.8a3.709,3.709,0,0,1,1.778-.444,9.1,9.1,0,0,0,2.352,0,3.992,3.992,0,0,0,1.119-.49,2.46,2.46,0,0,1,2.3-.261c1.586.513,1.969,2.735,1.188,4.528Z" transform="translate(-0.549 -2.019)"/></g></svg>