<svg xmlns="http://www.w3.org/2000/svg" width="20.857" height="25.41" viewBox="0 0 20.857 25.41"><defs><style>.a{fill:none;stroke:#fff;stroke-linecap:round;stroke-linejoin:round;stroke-width:2px;}.b,.c{fill:#fff;}.b{fill-rule:evenodd;opacity:0.3;}</style></defs><g transform="translate(0.62 0.885)"><path class="a" d="M2.813,8.426V5.843a5.352,5.352,0,1,1,10.686,0v2.5" transform="translate(1.643 0)"/><path class="b" d="M18.683,16.687a3.2,3.2,0,0,1-2.651,1.392H3.584a3.2,3.2,0,0,1-3.2-3.221V8.685a8.17,8.17,0,0,1,6.476.47,17.514,17.514,0,0,0,4.01,2.3c2.063.554,4.261-.923,6.71,1.845a4.848,4.848,0,0,1,1.107,3.389Z" transform="translate(0 5.445)"/><circle class="c" cx="2.097" cy="2.097" r="2.097" transform="translate(7.711 11.999)"/><path class="a" d="M9.808,10.75v5.905m9.428-4.11v4.412a3.187,3.187,0,0,1-3.2,3.221H3.584a3.2,3.2,0,0,1-3.2-3.221V8.351a3.221,3.221,0,0,1,3.2-3.221H16.032a3.221,3.221,0,0,1,3.2,3.221" transform="translate(0 3.346)"/></g></svg>