<svg xmlns="http://www.w3.org/2000/svg" width="19.425" height="23.385" viewBox="0 0 19.425 23.385"><defs><style>.a,.c{fill:#fff;opacity:0.3;}.a{fill-rule:evenodd;}.b{fill:none;stroke:#fff;stroke-linecap:round;stroke-linejoin:round;stroke-width:2px;}</style></defs><g transform="translate(0.62 0.602)"><path class="a" d="M17.352,10.886a5.165,5.165,0,0,1-1.962.621c-2.1.117-3.673-.671-5.937.1S6.1,15.1,1.789,14.24A4.31,4.31,0,0,1,.38,13.7v-.721a4.729,4.729,0,0,1,.252-1.543A4.662,4.662,0,0,1,5.042,8.32h8.117a4.562,4.562,0,0,1,3.354,1.459A3.773,3.773,0,0,1,17.352,10.886Z" transform="translate(0 5.363)"/><path class="b" d="M10.929,16.42H.38V12.982a4.729,4.729,0,0,1,.252-1.543A4.679,4.679,0,0,1,5.059,8.32h8.1a4.562,4.562,0,0,1,3.354,1.459,3.824,3.824,0,0,1,.788,1.107,4.6,4.6,0,0,1,.5,2.1V16.42H15.591" transform="translate(0 5.363)"/><path class="c" d="M11.122,5.529a4.646,4.646,0,0,1-7.882,0,4.629,4.629,0,0,1,7.882,0Z" transform="translate(1.936 1.983)"/><path class="b" d="M12.151,5.029a4.5,4.5,0,0,1-.738,2.482,4.646,4.646,0,0,1-7.882,0A4.528,4.528,0,0,1,2.81,5.029a4.344,4.344,0,0,1,.453-1.945,4.662,4.662,0,0,1,8.553.252,4.528,4.528,0,0,1,.335,1.694Z" transform="translate(1.645)"/></g></svg>