<svg xmlns="http://www.w3.org/2000/svg" width="148.712" height="48.376" viewBox="0 0 148.712 48.376"><defs><style>.a,.b{fill:#fff;}.b,.c{stroke:#4199d5;}.b{stroke-linecap:square;stroke-linejoin:round;stroke-width:1.573px;}.c,.e{fill:#4199d5;}.c{stroke-width:0.55px;}.c,.d,.e{fill-rule:evenodd;}.d{fill:#a5ed5e;}</style></defs><g transform="translate(-17.887 -1.272)"><path class="a" d="M93.1,21.1q-.045-3-1.774-4.225a7.624,7.624,0,0,0-4.606-1.18H80.8V34.2h2.86V26.676h3.377a6.694,6.694,0,0,0,4.427-1.287A5.3,5.3,0,0,0,93.1,21.1Zm-2.918,0a3.345,3.345,0,0,1-.926,2.673,3.629,3.629,0,0,1-2.45.7H83.661V17.9h3a4.26,4.26,0,0,1,2.5.572,2.983,2.983,0,0,1,1.019,2.63ZM113.6,34.2l-6.98-18.5H104.1L96.581,34.2h3l1.945-5.233h7.1l1.831,5.233Zm-5.693-7.378h-5.579l2.89-7.807ZM130.618,21.1q-.045-3-1.774-4.225a7.624,7.624,0,0,0-4.606-1.18h-5.922V34.2h2.861V26.676h3.376a6.692,6.692,0,0,0,4.427-1.287,5.3,5.3,0,0,0,1.638-4.29Zm-2.918,0a3.345,3.345,0,0,1-.926,2.673,3.629,3.629,0,0,1-2.45.7h-3.147V17.9h3a4.26,4.26,0,0,1,2.5.572A2.983,2.983,0,0,1,127.7,21.1Zm19.128,13.1v-2.2h-8.01V25.732h7.152v-2.2h-7.153V17.9h7.754V15.7H135.956V34.2Zm19.771,0-6.037-8.064a5.375,5.375,0,0,0,3.856-1.809,5.452,5.452,0,0,0,1.065-3.482q-.105-3.024-1.942-4.117a7.525,7.525,0,0,0-4.152-1.03h-6.35V34.2h2.86V26.218h1.345l5.893,7.979Zm-4.034-13.355a3.454,3.454,0,0,1-.687,2.263,2.862,2.862,0,0,1-2.317.912H155.9V17.9h3.633a3.1,3.1,0,0,1,2.268.776,2.943,2.943,0,0,1,.765,2.17Z"/><g transform="translate(100.8 -37.012)"><ellipse class="b" cx="23.413" cy="23.402" rx="23.413" ry="23.402" transform="translate(-82.127 39.07)"/><path class="c" d="M-61.135,76.118a17.014,17.014,0,0,1-6.253-13.336,12.861,12.861,0,0,1,1.421-5.957,8.712,8.712,0,0,1,4.38-4.022,7.321,7.321,0,0,1,6.4.57A6.966,6.966,0,0,1-52.85,55.72a6.824,6.824,0,0,1,.964,3.188,7.519,7.519,0,0,1-2.5,5.716,9.317,9.317,0,0,1-5.979,2.311,9.979,9.979,0,0,1-7.042-2.623,8.976,8.976,0,0,1-2.818-6.933A8.884,8.884,0,0,1-68.96,53.3a9.856,9.856,0,0,1,2.991-3.107,11.789,11.789,0,0,1,8.4-1.61,13.5,13.5,0,0,1,9.282,6.538,13.553,13.553,0,0,0-9.262-6.647,11.955,11.955,0,0,0-8.54,1.533,10.13,10.13,0,0,0-3.153,3.118,9.272,9.272,0,0,0-1.425,4.225,9.47,9.47,0,0,0,2.877,7.361A10.585,10.585,0,0,0-60.354,67.6a10.036,10.036,0,0,0,6.482-2.4A8.347,8.347,0,0,0-51,58.883a7.762,7.762,0,0,0-.987-3.66A8.013,8.013,0,0,0-54.6,52.439a8.48,8.48,0,0,0-7.42-.772,9.973,9.973,0,0,0-5.111,4.518,14.229,14.229,0,0,0-1.7,6.567,18.5,18.5,0,0,0,6.715,14.567Z"/><path class="d" d="M-39.728,56.006l-7.114,1.53-1.486-3.105Zm-8.672-1.53-1.4,2.385,2.341-.36Zm-.088-.315-1.383-2.219,10.142,4.019Z"/><path class="e" d="M-68.834,63.5a3.825,3.825,0,0,0,1.593,1.7l-.091-.818c-.492-.65-.795-.839-1.116-1.322-.082-.132-.372-.464-.372-.464a2.545,2.545,0,0,0-.014.9Z"/></g></g></svg>