<svg xmlns="http://www.w3.org/2000/svg" width="214.786" height="69.282" viewBox="0 0 214.786 69.282"><defs><style>.a,.b{fill:#fff;}.b,.c{stroke:#4199d5;}.b{stroke-linecap:square;stroke-linejoin:round;stroke-width:1.573px;}.c,.e{fill:#4199d5;}.c{stroke-width:0.55px;}.c,.d,.e{fill-rule:evenodd;}.d{fill:#a5ed5e;}</style></defs><g transform="translate(-17.887 -1.272)"><g transform="translate(108.55 21.781)"><path class="a" d="M98.6,23.516q-.065-4.344-2.566-6.112A11.029,11.029,0,0,0,89.367,15.7H80.8V42.463h4.137V31.583h4.885a9.684,9.684,0,0,0,6.4-1.862q2.326-1.9,2.37-6.206Zm-4.221,0q-.03,2.8-1.34,3.867A5.25,5.25,0,0,1,89.492,28.4H84.939V18.882h4.346a6.164,6.164,0,0,1,3.617.827q1.424.911,1.474,3.8Zm33.88,18.947L118.157,15.7h-3.643L103.63,42.463h4.346l2.814-7.57h10.264l2.649,7.57Zm-8.236-10.674h-8.071L116.129,20.5Zm32.851-8.274q-.065-4.344-2.566-6.112a11.029,11.029,0,0,0-6.663-1.707h-8.567V42.463h4.139V31.583H144.1a9.681,9.681,0,0,0,6.4-1.862q2.326-1.9,2.37-6.206Zm-4.221,0q-.03,2.8-1.34,3.867a5.251,5.251,0,0,1-3.544,1.014h-4.553V18.882h4.346a6.163,6.163,0,0,1,3.617.827q1.424.911,1.474,3.8Zm27.672,18.947V39.277H164.733v-9.06H175.08V27.031H164.732V18.882h11.217V15.7H160.593V42.463Zm28.6,0L196.189,30.8q3.978-.477,5.578-2.617a7.887,7.887,0,0,0,1.541-5.037q-.152-4.375-2.809-5.956a10.886,10.886,0,0,0-6.007-1.49h-9.186V42.463h4.137V30.92h1.946l8.525,11.543Zm-5.836-19.32a5,5,0,0,1-.994,3.274,4.14,4.14,0,0,1-3.352,1.319h-5.3V18.882H194.7A4.488,4.488,0,0,1,197.982,20a4.257,4.257,0,0,1,1.107,3.139Z" transform="translate(-80.8 -15.691)"/></g><g transform="translate(18.673 2.058)"><ellipse class="b" cx="33.872" cy="33.855" rx="33.872" ry="33.855"/><g transform="translate(16.547 13.297)"><path class="c" d="M-56.867,88.56a24.613,24.613,0,0,1-9.046-19.293,18.605,18.605,0,0,1,2.056-8.617,12.6,12.6,0,0,1,6.337-5.818,10.591,10.591,0,0,1,9.258.824,10.077,10.077,0,0,1,3.38,3.4,9.871,9.871,0,0,1,1.394,4.612,10.877,10.877,0,0,1-3.618,8.269,13.478,13.478,0,0,1-8.65,3.344,14.437,14.437,0,0,1-10.187-3.795,12.985,12.985,0,0,1-4.077-10.029,12.853,12.853,0,0,1,1.832-5.9,14.258,14.258,0,0,1,4.328-4.495,17.054,17.054,0,0,1,12.153-2.329,19.527,19.527,0,0,1,13.428,9.459,19.606,19.606,0,0,0-13.4-9.616,17.3,17.3,0,0,0-12.355,2.218A14.655,14.655,0,0,0-68.6,55.3a13.414,13.414,0,0,0-2.062,6.113,13.7,13.7,0,0,0,4.163,10.648,15.313,15.313,0,0,0,10.757,4.175,14.518,14.518,0,0,0,9.377-3.469,12.075,12.075,0,0,0,4.15-9.138,11.23,11.23,0,0,0-1.427-5.295,11.593,11.593,0,0,0-3.77-4.027,12.268,12.268,0,0,0-10.735-1.117,14.428,14.428,0,0,0-7.393,6.535,20.584,20.584,0,0,0-2.454,9.5A26.768,26.768,0,0,0-58.274,90.3Z" transform="translate(70.689 -48.262)"/><path class="d" d="M-35.2,57.822-45.49,60.035l-2.15-4.492Zm-12.545-2.214-2.019,3.451,3.387-.521Zm-.127-.456-2-3.21L-35.2,57.756Z" transform="translate(79.988 -46.618)"/></g><path class="e" d="M-68.817,63.9a5.534,5.534,0,0,0,2.3,2.462l-.132-1.184c-.711-.94-1.15-1.214-1.614-1.912-.119-.19-.538-.671-.538-.671a3.682,3.682,0,0,0-.02,1.3Z" transform="translate(88.048 -28.56)"/></g></g></svg>