<svg xmlns="http://www.w3.org/2000/svg" width="31.008" height="33.15" viewBox="0 0 31.008 33.15"><defs><style>.a{fill:#8bbd37;opacity:0.1;}.b{fill:#fff;}.c{fill:none;stroke:#a5ce5e;stroke-linecap:round;stroke-linejoin:round;stroke-width:2px;}</style></defs><g transform="translate(0.002)"><path class="a" d="M15.5,32.15S30.75,30.122,29.976,7.137c0,0-2.428-3.095-14.474-6.137C3.455,4.042,1.027,7.137,1.027,7.137.253,30.109,15.5,32.15,15.5,32.15Z" transform="translate(0)"/><path class="b" d="M15.5,32.15S30.75,30.122,29.976,7.137c0,0-2.428-3.095-14.474-6.137C3.455,4.042,1.027,7.137,1.027,7.137.253,30.109,15.5,32.15,15.5,32.15Z" transform="translate(0)"/><path class="c" d="M15.5,32.15S.253,30.122,1.027,7.137c0,0,2.428-3.095,14.474-6.137C27.548,4.042,29.976,7.137,29.976,7.137,30.75,30.109,15.5,32.15,15.5,32.15Z" transform="translate(0)"/><path class="a" d="M15.488,1V32.15S.253,30.122,1.027,7.137c0-.013,2.441-3.108,14.461-6.137Z" transform="translate(0)"/><path class="c" d="M8.07,13.655l3.122,3.122L18.209,9.76" transform="translate(2.362 2.926)"/></g></svg>