<svg xmlns="http://www.w3.org/2000/svg" width="15.04" height="17.214" viewBox="0 0 15.04 17.214"><defs><style>.a,.c{fill:#4198d3;opacity:0.3;}.a{fill-rule:evenodd;}.b{fill:none;stroke:#133f5d;stroke-linecap:round;stroke-linejoin:round;}</style></defs><g transform="translate(-4.98 -3.876)"><path class="a" d="M19.1,16.15a4.2,4.2,0,0,1-1.58.5c-1.68.09-2.95-.54-4.75.08s-2.72,2.8-6.16,2.11a3.49,3.49,0,0,1-1.13-.43v-.58a3.87,3.87,0,0,1,.21-1.23,3.74,3.74,0,0,1,3.54-2.51h6.54a3.72,3.72,0,0,1,2.72,1.17,3.28,3.28,0,0,1,.61.89Z"/><path class="b" d="M13.94,20.59H5.48V17.83a3.87,3.87,0,0,1,.21-1.23,3.74,3.74,0,0,1,3.54-2.51h6.54a3.72,3.72,0,0,1,2.72,1.17,3.28,3.28,0,0,1,.61.89,3.55,3.55,0,0,1,.42,1.68v2.76H17.69"/><path class="c" d="M15.66,10.15a3.73,3.73,0,0,1-6.33,0,3.72,3.72,0,0,1,6.33,0Z"/><path class="b" d="M16.24,8.15a3.69,3.69,0,0,1-.58,2,3.73,3.73,0,0,1-6.33,0,3.65,3.65,0,0,1-.58-2A3.752,3.752,0,0,1,16,6.77a3.5,3.5,0,0,1,.24,1.38Z"/></g></svg>